<?xml version="1.0" standalone="no"?>
<!DOCTYPE svg PUBLIC "-//W3C//DTD SVG 1.1//EN" "http://www.w3.org/Graphics/SVG/1.1/DTD/svg11.dtd">
<svg xmlns="http://www.w3.org/2000/svg" xmlns:xlink="http://www.w3.org/1999/xlink" version="1.1" id="Layer_1" x="0px" y="0px" viewBox="0 0 512 512" style="enable-background:new 0 0 512 512;" xml:space="preserve" width="512" height="512">
<style type="text/css">
	.st0{fill:#FE502D;}
	.st1{clip-path:url(#SVGID_00000093881520300772792800000003807856306090927518_);}
	.st2{fill:#231F20;}
	.st3{fill:#FFFFFF;}
</style>
<g>
	<circle class="st0" cx="256" cy="256" r="256"/>
	<rect y="0" class="st0" width="512" height="512"/>
	<g>
		<defs>
			<polygon id="SVGID_1_" points="512,512 294.3,512 81.7,470.4 0,0 512,0    "/>
		</defs>
		<clipPath id="SVGID_00000108991969556392588530000007958233337909209986_">
			<use xlink:href="#SVGID_1_" style="overflow:visible;"/>
		</clipPath>
		<g style="clip-path:url(#SVGID_00000108991969556392588530000007958233337909209986_);">
			<path class="st2" d="M671.8,236c3.7-9.8,4.4-19.9,2.1-30.1c-2.4-11.1-8.6-19.3-18.5-24.9c-7.6-4.2-15.6-7.5-24-9.6     c-9.6-2.4-19.3-4.7-28.9-7.2c-4.8-1.2-9.3-2.9-13.4-5.8c-8.2-5.8-6-15.8-0.6-20.1c3.8-3,8.2-4.6,12.8-5.5     c6.5-1.3,12.9-0.5,19.3,1.2c7.4,1.9,12.1,6.5,14.1,13.8c0.6,2,1,4.1,1.5,6.2c11.2,0,22.3,0,33.5,0c0-0.4,0-0.7,0-1     c-0.4-3.1-0.6-6.3-1.1-9.3c-2.3-11.6-8.1-21-17.9-27.8c-10.3-7.1-21.9-10.7-34.2-11.8c-1.3-0.1-2.7-0.3-4-0.4     c-3.4,0-6.8,0-10.3,0c-1.9,0.2-3.9,0.4-5.8,0.6c-12.9,1.6-24.6,6.3-34.6,14.8c-7.9,6.6-12.3,15.2-13.6,25.4     c-0.9,7.1-0.5,14.1,1.6,20.9c3,9.9,9.4,17,18.5,21.6c10.2,5.1,20.9,8.7,31.9,11.6c6.4,1.7,12.9,3.1,19.4,4.8     c4.4,1.2,8.7,2.9,12.5,5.5c4.4,2.9,7.1,6.9,7,12.4c0,5.4-2.3,9.8-7,12.5c-13.5,7.6-27.3,7.9-41,0.8c-7.7-4-11.6-10.7-12.7-19.2     c-0.1-1-0.3-2.1-0.4-3.2c-0.5,0-0.9,0-1.4,0c-10.9,0-21.8,0-32.7,0c-0.4,0-0.9-0.1-1.3-0.1c0,0.7,0,1.4,0,2.1     c0.1,0.3,0.2,0.6,0.2,0.9c0.3,2.6,0.5,5.2,0.9,7.8c1.9,12.4,7.8,22.6,17.8,30.4c11.8,9,25.3,13.1,39.9,14.4     c7.4,0.6,14.8,0.4,22.2-0.6c11.2-1.4,21.7-4.9,31.4-10.9C662.6,251.1,668.5,244.7,671.8,236z"/>
			<path class="st2" d="M907.2,361.5c-25.8,0-51.6,0-77.5,0c0,8.7,0,17.4,0,26.2c13.3,0,26.6,0,40.1,0c-1.1,2.4-2,4.6-3.1,6.7     c-4.6,8.8-11.3,15.1-20.6,18.7c-5.5,2.1-11.1,3.1-17,3.3c-4.9,0.2-9.7,0-14.4-1.5c-15.4-5.1-26.1-15.2-31.4-30.7     c-3.1-8.9-4-17.9-2.1-27.2c1.5-7.6,4.8-14.3,9.5-20.4c6.8-9,15.4-15.2,26.5-17.6c9-2,17.8-0.9,26.5,2.1c5.6,1.9,10.5,5,14.5,9.4     c2.7,2.9,4.7,6.2,6.5,9.6c0.4,0.7,0.8,0.9,1.6,0.9c11.9,0,23.9,0,35.8,0c0.4,0,0.7,0,1.1-0.1c-8.7-29.8-44.3-62.6-92.1-54.1     c-37.1,6.6-74,44.2-64.6,95.5c6.7,36.9,44,73.6,95.4,64.4C880.8,439.6,910.8,401.6,907.2,361.5z"/>
			<path class="st2" d="M772.1,165.9c-0.4,0-0.7-0.1-1-0.1c-10.1,0-20.2,0-30.4,0c-0.8,0-1,0.4-1.2,1c-3.9,9.8-7.8,19.6-11.8,29.4     c-10.7,26.7-21.4,53.3-32,80c-13.9,34.7-27.8,69.4-41.7,104.1c-1.1,2.7-2.2,5.4-3.3,8.3c0.3,0,0.5,0,0.6,0c10.2,0,20.3,0,30.5,0     c0.8,0,1-0.4,1.2-1c14.8-36.9,29.7-73.8,44.5-110.7c14.1-35.1,28.2-70.2,42.3-105.2C770.6,169.8,771.3,167.9,772.1,165.9z"/>
			<g>
				<path class="st3" d="M343.4,412.3C324.9,402,305.5,394,285,388.9c-23.5-5.9-47-11.5-70.4-17.5c-11.6-2.9-22.7-7-32.5-14      c-19.9-14.2-14.6-38.4-1.6-48.9c9.2-7.4,19.9-11.2,31.3-13.5c15.9-3.1,31.4-1.1,46.9,2.9c18.1,4.6,29.4,15.8,34.3,33.6      c1.2,4.4,2.2,8.9,3.2,13.4c0.2,1,1.1,1.7,2.2,1.7H376c1.3,0,2.3-1.1,2.1-2.4l0,0c-0.9-7.6-1.3-15.3-2.8-22.7      c-5.5-28.3-19.7-51.2-43.5-67.6c-25-17.3-53.2-25.9-83.3-28.8c-3.2-0.3-6.4-0.7-9.5-1c-8.8,0-17.6,0.1-26.4,0.1      c-4.3,0.5-8.7,0.9-13,1.4c-31.5,4-60,15.4-84.3,35.9c-19.1,16.1-29.9,37.1-33.2,61.8c-2.3,17.2-1.2,34.3,4,50.9      c7.4,24,22.8,41.5,45.1,52.7c24.7,12.5,50.9,21.2,77.6,28.2c15.7,4.1,31.5,7.7,47.2,11.8c10.8,2.8,21.1,7.1,30.4,13.3      c10.7,7.1,17.2,16.9,17.1,30.1c-0.1,13.1-5.6,23.9-17,30.3c-32.8,18.5-66.4,19.2-99.8,1.9c-18.6-9.7-28.2-26.1-31-46.7      c-0.3-1.9-0.5-3.8-0.8-5.9c-0.1-1.1-1.1-2-2.2-2h-1.4c-26.5,0-53,0-79.6,0c-0.3,0-0.6,0-0.9,0c-1.3-0.1-2.4,0.9-2.4,2.2v2.4      c0,0.2,0,0.4,0.1,0.5c0.2,0.6,0.3,1.3,0.4,1.9c0.7,6.3,1.1,12.7,2.1,19c4.7,30.3,18.9,55.1,43.3,73.9c28.6,22,61.7,31.9,97.1,35      c18.1,1.6,36.2,0.9,54.2-1.4c27.3-3.5,52.9-12,76.4-26.5c19.1-11.8,33.5-27.6,41.5-48.7c9.1-23.9,10.6-48.4,5.2-73.4      C382.6,445.9,367.5,425.7,343.4,412.3z"/>
				<path class="st3" d="M324.5,236.8c33.2,2.3,59.5,30,59.5,63.8c0-33.8,26.2-61.5,59.5-63.8c0.2,0,0.2-0.3,0-0.3      c-33.2-2.3-59.5-30-59.5-63.8c0,33.8-26.2,61.5-59.5,63.8C324.4,236.5,324.4,236.8,324.5,236.8z"/>
			</g>
		</g>
	</g>
</g>
<g>
</g>
<g>
</g>
<g>
</g>
<g>
</g>
<g>
</g>
<g>
</g>
</svg>